# xmcd
#
# Track frame offsets:
#	150
#	19940
#	38367
#	51660
#	64960
#	80275
#	95565
#	108550
#	121045
#	133980
#	151735
#
# Disc length: 2311 seconds
#
# Revision: 2
# Processed by: cddbd v1.5.2PL0 Copyright (c) Steve Scherf et al.
# Submitted via: EasyCDDAExtractor 15.2.5.1
#
DISCID=8e09050b
DTITLE=사랑의 하모니 - 사랑의 하모니 1981 Jigu jcds0450]  별이여 사랑이여
DYEAR=1981
DGENRE=Blues
TTITLE0=별이여 사랑이여
TTITLE1=야화
TTITLE2=슬퍼서 아름다운 얘기
TTITLE3=마지막 축제
TTITLE4=별이 되고픈 새 하나가
TTITLE5=나비야
TTITLE6=소망
TTITLE7=사랑의 노래
TTITLE8=밤의 연정
TTITLE9=길
TTITLE10=사랑은 창가에 머물고
EXTD=
EXTT0=
EXTT1=
EXTT2=
EXTT3=
EXTT4=
EXTT5=
EXTT6=
EXTT7=
EXTT8=
EXTT9=
EXTT10=
PLAYORDER=
